<svg xmlns="http://www.w3.org/2000/svg" width="462" height="512" viewBox="0 0 462 512" version="1.1">
	<path d="M 221.103 1.569 C 218.684 2.452, 215.196 4.148, 213.351 5.337 C 211.506 6.527, 173.816 45.300, 129.595 91.500 C 85.374 137.700, 46.727 177.975, 43.711 181 C 22.062 202.720, 10.486 222.507, 3.930 249 C 1.877 257.298, 1.575 260.968, 1.543 278 C 1.502 299.834, 2.584 306.867, 8.681 324.382 C 19.315 354.932, 37.457 379.102, 62.377 395.917 C 82.769 409.677, 103.759 416.638, 128.036 417.692 C 152.772 418.766, 166.473 414.169, 183.108 399.213 L 188.215 394.621 187.749 414.561 C 187.113 441.729, 185.942 445.526, 169.246 474.573 C 164.797 482.313, 160.852 490.271, 160.479 492.258 C 159.195 499.104, 164.058 507.873, 170.671 510.636 C 173.301 511.735, 184.984 511.996, 230.718 511.978 C 283.930 511.957, 287.758 511.839, 291.599 510.095 C 297.924 507.222, 300.500 502.853, 300.500 495 C 300.500 488.663, 300.289 488.136, 292.082 474 C 276.108 446.486, 274.162 440.247, 273.286 413.750 C 272.964 403.987, 273.033 396, 273.440 396 C 273.847 396, 276.727 398.279, 279.840 401.065 C 287.066 407.530, 294.780 412.215, 303 415.128 C 308.762 417.171, 311.374 417.436, 326 417.466 C 343.715 417.502, 352.516 416.193, 366.934 411.375 C 398.595 400.795, 426.096 378.073, 442.830 348.667 C 454.302 328.508, 459.873 309.261, 460.714 286.878 C 461.594 263.475, 457.904 246.040, 447.514 224.500 C 440.295 209.535, 431.918 198.088, 416.443 182.040 C 409.261 174.593, 369.939 132.950, 329.061 89.500 C 288.182 46.050, 253.558 9.462, 252.118 8.194 C 244.101 1.131, 230.349 -1.806, 221.103 1.569 M 405.159 240.601 C 400.915 243.574, 400.691 246.357, 403.931 255.847 C 405.556 260.606, 407.422 267.621, 408.078 271.437 C 409.502 279.722, 408.779 294.976, 406.558 303.500 C 404.292 312.197, 395.912 328.512, 389.970 335.796 C 376.128 352.765, 354.400 364.460, 332.754 366.593 C 326.732 367.186, 325.086 367.761, 322.771 370.075 C 319.134 373.712, 319.184 377.338, 322.923 381.077 C 326.384 384.537, 329.392 384.758, 342.341 382.500 C 388.289 374.487, 423.628 334.761, 425.736 288.750 C 426.364 275.054, 425.096 265.561, 420.869 252.298 C 418.787 245.765, 417.181 242.501, 415.333 241.048 C 412.210 238.591, 408.276 238.418, 405.159 240.601" stroke="none" fill="black" fill-rule="evenodd"/>
</svg>